<svg xmlns="http://www.w3.org/2000/svg" viewBox="0 0 24 24">
  <path d="M5.625 22.5L15 7.5h28.125l9.375 15v30H5.625v-30zm44.578 0L42 9.375H16.125L7.922 22.5h42.281zM7.5 24.375v26.25h43.125v-26.25H7.5zm16.87 9.375h9.385A3.75 3.75 0 0137.5 37.5a3.738 3.738 0 01-3.745 3.75H24.37a3.75 3.75 0 01-3.745-3.75 3.738 3.738 0 013.745-3.75zm.011 1.875A1.873 1.873 0 0022.5 37.5c0 1.036.821 1.875 1.881 1.875h9.364a1.873 1.873 0 001.881-1.875 1.864 1.864 0 00-1.881-1.875h-9.364zM18.75 11.25l-1.125 1.875H40.5l-1.125-1.875H18.75zM16.312 15l-1.125 1.875h27.75L41.812 15h-25.5zm-2.249 3.75l-1.125 1.875h32.25l-1.125-1.875h-30z"/>
</svg>